<mxfile host="app.diagrams.net" modified="2022-09-17T03:03:13.764Z" agent="5.0 (Windows NT 10.0; Win64; x64) AppleWebKit/537.36 (KHTML, like Gecko) Chrome/105.0.0.0 Safari/537.36" etag="YhQefUz1rM7umnqZyVCN" version="20.3.2" type="github">
  <diagram id="C5RBs43oDa-KdzZeNtuy" name="Page-1">
    <mxGraphModel dx="1038" dy="539" grid="1" gridSize="10" guides="1" tooltips="1" connect="1" arrows="1" fold="1" page="1" pageScale="1" pageWidth="827" pageHeight="1169" math="0" shadow="0">
      <root>
        <mxCell id="WIyWlLk6GJQsqaUBKTNV-0" />
        <mxCell id="WIyWlLk6GJQsqaUBKTNV-1" parent="WIyWlLk6GJQsqaUBKTNV-0" />
        <mxCell id="qmiG9UEcXdXwdwEiCW9k-3" value="Halaman Login" style="rounded=1;whiteSpace=wrap;html=1;" vertex="1" parent="WIyWlLk6GJQsqaUBKTNV-1">
          <mxGeometry x="70" y="80" width="120" height="60" as="geometry" />
        </mxCell>
        <mxCell id="qmiG9UEcXdXwdwEiCW9k-5" value="Masukan Kredensial" style="rounded=1;whiteSpace=wrap;html=1;" vertex="1" parent="WIyWlLk6GJQsqaUBKTNV-1">
          <mxGeometry x="70" y="170" width="120" height="60" as="geometry" />
        </mxCell>
        <mxCell id="qmiG9UEcXdXwdwEiCW9k-7" value="" style="endArrow=classic;html=1;rounded=0;" edge="1" parent="WIyWlLk6GJQsqaUBKTNV-1" source="qmiG9UEcXdXwdwEiCW9k-3" target="qmiG9UEcXdXwdwEiCW9k-5">
          <mxGeometry width="50" height="50" relative="1" as="geometry">
            <mxPoint x="390" y="300" as="sourcePoint" />
            <mxPoint x="440" y="250" as="targetPoint" />
          </mxGeometry>
        </mxCell>
        <mxCell id="qmiG9UEcXdXwdwEiCW9k-9" value="&lt;font style=&quot;font-size: 19px;&quot;&gt;&lt;b&gt;Authorization&lt;/b&gt;&lt;/font&gt;" style="text;html=1;strokeColor=none;fillColor=none;align=center;verticalAlign=middle;whiteSpace=wrap;rounded=0;strokeWidth=1;" vertex="1" parent="WIyWlLk6GJQsqaUBKTNV-1">
          <mxGeometry x="300" width="130" height="70" as="geometry" />
        </mxCell>
        <mxCell id="qmiG9UEcXdXwdwEiCW9k-10" value="&lt;font style=&quot;font-size: 12px;&quot;&gt;yes&lt;/font&gt;" style="endArrow=classic;html=1;rounded=0;fontSize=19;" edge="1" parent="WIyWlLk6GJQsqaUBKTNV-1" source="qmiG9UEcXdXwdwEiCW9k-5" target="qmiG9UEcXdXwdwEiCW9k-12">
          <mxGeometry width="50" height="50" relative="1" as="geometry">
            <mxPoint x="390" y="280" as="sourcePoint" />
            <mxPoint x="440" y="230" as="targetPoint" />
          </mxGeometry>
        </mxCell>
        <mxCell id="qmiG9UEcXdXwdwEiCW9k-11" value="" style="endArrow=classic;html=1;rounded=0;fontSize=19;" edge="1" parent="WIyWlLk6GJQsqaUBKTNV-1" source="qmiG9UEcXdXwdwEiCW9k-5" target="qmiG9UEcXdXwdwEiCW9k-13">
          <mxGeometry width="50" height="50" relative="1" as="geometry">
            <mxPoint x="250" y="220" as="sourcePoint" />
            <mxPoint x="300" y="170" as="targetPoint" />
          </mxGeometry>
        </mxCell>
        <mxCell id="qmiG9UEcXdXwdwEiCW9k-14" value="no" style="edgeLabel;html=1;align=center;verticalAlign=middle;resizable=0;points=[];fontSize=12;" vertex="1" connectable="0" parent="qmiG9UEcXdXwdwEiCW9k-11">
          <mxGeometry x="-0.5042" y="1" relative="1" as="geometry">
            <mxPoint as="offset" />
          </mxGeometry>
        </mxCell>
        <mxCell id="qmiG9UEcXdXwdwEiCW9k-12" value="&lt;font style=&quot;font-size: 12px;&quot;&gt;Masuk Beranda&lt;/font&gt;" style="rounded=1;whiteSpace=wrap;html=1;strokeWidth=1;fontSize=19;" vertex="1" parent="WIyWlLk6GJQsqaUBKTNV-1">
          <mxGeometry x="70" y="290" width="120" height="60" as="geometry" />
        </mxCell>
        <mxCell id="qmiG9UEcXdXwdwEiCW9k-13" value="&lt;font style=&quot;font-size: 12px;&quot;&gt;Keluar Message&lt;br&gt;&quot;username atau password salah&quot;&lt;br&gt;&lt;/font&gt;" style="rounded=1;whiteSpace=wrap;html=1;strokeWidth=1;fontSize=19;" vertex="1" parent="WIyWlLk6GJQsqaUBKTNV-1">
          <mxGeometry x="260" y="160" width="120" height="80" as="geometry" />
        </mxCell>
      </root>
    </mxGraphModel>
  </diagram>
</mxfile>
